<svg xmlns="http://www.w3.org/2000/svg" xmlns:xlink="http://www.w3.org/1999/xlink" width="520" zoomAndPan="magnify" viewBox="0 0 390 119.999999" height="160" preserveAspectRatio="xMidYMid meet" version="1.0"><defs><g/><clipPath id="db836dbbe5"><path d="M 0 7.945312 L 104.25 7.945312 L 104.25 112.195312 L 0 112.195312 Z M 0 7.945312 " clip-rule="nonzero"/></clipPath><clipPath id="cf1741c520"><path d="M 118.578125 7.945312 L 216.601562 7.945312 L 216.601562 105.96875 L 118.578125 105.96875 Z M 118.578125 7.945312 " clip-rule="nonzero"/></clipPath></defs><path stroke-linecap="butt" transform="matrix(0.367777, 0, 0, 0.367777, 0.0000024375, 7.947115)" fill-opacity="1" fill="#ffffff" fill-rule="nonzero" stroke-linejoin="miter" d="M 15.538885 20.345419 L 269.503648 20.345419 L 269.503648 262.095741 L 15.538885 262.095741 Z M 15.538885 20.345419 " stroke="#000000" stroke-width="1" stroke-opacity="1" stroke-miterlimit="4"/><g clip-path="url(#db836dbbe5)"><path fill="#000000" d="M 74.566406 58.800781 C 74.734375 58.769531 74.859375 58.75 75.027344 58.707031 C 79.214844 57.644531 82.335938 53.605469 82.335938 49.117188 L 82.242188 18.417969 L 93.59375 18.417969 L 93.59375 49.277344 C 93.605469 60.003906 85.464844 68.921875 75.027344 70.023438 L 74.566406 70.070312 Z M 71.191406 70.070312 L 70.601562 70.023438 C 60.167969 68.933594 52.097656 60.117188 52.097656 49.390625 L 52.097656 18.421875 L 63.378906 18.421875 L 63.359375 49.121094 C 63.359375 53.609375 66.484375 57.648438 70.671875 58.710938 C 70.855469 58.753906 71 58.785156 71.1875 58.816406 Z M 43.632812 101.527344 L 43.632812 83.179688 L 40.050781 83.179688 L 40.050781 101.527344 Z M 67.988281 101.527344 L 67.988281 98.332031 L 59.484375 98.332031 L 59.484375 93.875 L 66.726562 93.875 L 66.726562 90.679688 L 59.484375 90.679688 L 59.484375 86.375 L 67.988281 86.375 L 67.988281 83.179688 L 55.902344 83.179688 L 55.902344 101.527344 Z M 93.648438 101.527344 L 93.648438 83.179688 L 90.066406 83.179688 L 90.066406 94.414062 L 82.796875 83.179688 L 79.601562 83.179688 L 79.601562 101.527344 L 83.183594 101.527344 L 83.183594 90.265625 L 90.449219 101.527344 Z M 31.527344 83.179688 L 27.789062 83.179688 L 24.929688 94.75 L 21.578125 83.179688 L 18.894531 83.179688 L 15.546875 94.75 L 12.710938 83.179688 L 8.980469 83.179688 L 13.875 101.527344 L 16.867188 101.527344 L 20.242188 90.394531 L 23.617188 101.527344 L 26.609375 101.527344 Z M 8.015625 18.421875 L 46.945312 18.421875 L 46.945312 29.554688 L 8.015625 29.554688 Z M 22.101562 69.777344 L 22.101562 32.789062 L 33.234375 32.789062 L 33.234375 69.78125 L 22.101562 69.78125 Z M 93.824219 7.945312 C 99.578125 7.945312 104.226562 12.617188 104.226562 18.378906 L 104.25 101.765625 C 104.25 107.527344 99.566406 112.195312 93.808594 112.195312 L 10.421875 112.195312 C 4.671875 112.195312 0 107.53125 0 101.769531 L 0.0078125 18.378906 C 0.0078125 12.617188 4.664062 7.945312 10.414062 7.945312 Z M 93.824219 7.945312 " fill-opacity="1" fill-rule="evenodd"/></g><g clip-path="url(#cf1741c520)"><path fill="#000000" d="M 167.589844 7.945312 C 166.96875 7.949219 166.359375 8.007812 165.75 8.121094 C 165.144531 8.238281 164.554688 8.410156 163.976562 8.640625 C 163.402344 8.867188 162.855469 9.148438 162.335938 9.480469 C 161.8125 9.8125 161.328125 10.191406 160.878906 10.613281 C 160.425781 11.039062 160.019531 11.5 159.660156 12.003906 C 159.296875 12.503906 158.984375 13.035156 158.722656 13.59375 C 158.460938 14.152344 158.253906 14.734375 158.101562 15.332031 C 157.949219 15.929688 157.851562 16.539062 157.816406 17.15625 L 133.777344 29.179688 C 132.140625 28.097656 130.34375 27.554688 128.378906 27.550781 C 127.734375 27.550781 127.097656 27.613281 126.46875 27.738281 C 125.835938 27.867188 125.222656 28.050781 124.628906 28.296875 C 124.035156 28.542969 123.46875 28.847656 122.933594 29.203125 C 122.398438 29.5625 121.902344 29.96875 121.449219 30.421875 C 120.992188 30.878906 120.585938 31.371094 120.230469 31.90625 C 119.871094 32.441406 119.570312 33.007812 119.324219 33.601562 C 119.078125 34.199219 118.890625 34.808594 118.765625 35.441406 C 118.640625 36.074219 118.578125 36.710938 118.578125 37.355469 C 118.578125 37.996094 118.640625 38.636719 118.765625 39.265625 C 118.890625 39.898438 119.078125 40.511719 119.324219 41.105469 C 119.570312 41.699219 119.871094 42.265625 120.230469 42.800781 C 120.585938 43.335938 120.992188 43.832031 121.449219 44.285156 C 121.902344 44.742188 122.398438 45.148438 122.933594 45.503906 C 123.46875 45.863281 124.035156 46.164062 124.628906 46.410156 C 125.222656 46.65625 125.835938 46.84375 126.46875 46.96875 C 127.097656 47.09375 127.734375 47.15625 128.378906 47.15625 C 130.339844 47.152344 132.136719 46.609375 133.769531 45.527344 L 157.816406 57.550781 C 157.863281 58.359375 158.011719 59.148438 158.257812 59.917969 C 158.503906 60.6875 158.835938 61.414062 159.261719 62.101562 C 159.6875 62.789062 160.191406 63.414062 160.769531 63.976562 C 161.347656 64.542969 161.988281 65.023438 162.6875 65.429688 L 162.6875 87.6875 C 162.519531 87.785156 162.351562 87.886719 162.191406 87.992188 L 138.152344 75.96875 C 138.117188 75.351562 138.019531 74.746094 137.867188 74.144531 C 137.714844 73.546875 137.507812 72.964844 137.246094 72.40625 C 136.984375 71.847656 136.671875 71.316406 136.308594 70.816406 C 135.945312 70.316406 135.539062 69.851562 135.089844 69.429688 C 134.640625 69.003906 134.15625 68.625 133.632812 68.292969 C 133.113281 67.960938 132.566406 67.683594 131.988281 67.453125 C 131.414062 67.226562 130.824219 67.054688 130.21875 66.9375 C 129.609375 66.820312 128.996094 66.761719 128.378906 66.761719 C 127.734375 66.761719 127.097656 66.824219 126.46875 66.949219 C 125.835938 67.074219 125.222656 67.261719 124.628906 67.507812 C 124.035156 67.753906 123.46875 68.054688 122.933594 68.414062 C 122.398438 68.769531 121.902344 69.175781 121.449219 69.632812 C 120.992188 70.085938 120.585938 70.582031 120.230469 71.117188 C 119.871094 71.652344 119.570312 72.21875 119.324219 72.8125 C 119.078125 73.40625 118.890625 74.019531 118.765625 74.652344 C 118.640625 75.28125 118.578125 75.917969 118.578125 76.5625 C 118.578125 77.207031 118.640625 77.84375 118.765625 78.476562 C 118.890625 79.105469 119.078125 79.71875 119.324219 80.3125 C 119.570312 80.910156 119.871094 81.472656 120.230469 82.007812 C 120.585938 82.542969 120.992188 83.039062 121.449219 83.496094 C 121.902344 83.949219 122.398438 84.355469 122.933594 84.714844 C 123.46875 85.070312 124.035156 85.371094 124.628906 85.621094 C 125.222656 85.867188 125.835938 86.050781 126.46875 86.175781 C 127.097656 86.300781 127.734375 86.367188 128.378906 86.367188 C 130.339844 86.363281 132.136719 85.820312 133.769531 84.738281 L 157.816406 96.761719 C 157.851562 97.378906 157.949219 97.984375 158.101562 98.585938 C 158.253906 99.183594 158.460938 99.765625 158.722656 100.324219 C 158.984375 100.882812 159.296875 101.414062 159.660156 101.914062 C 160.019531 102.414062 160.425781 102.878906 160.878906 103.300781 C 161.328125 103.726562 161.8125 104.105469 162.335938 104.4375 C 162.855469 104.769531 163.402344 105.046875 163.976562 105.277344 C 164.554688 105.503906 165.144531 105.675781 165.75 105.792969 C 166.359375 105.910156 166.96875 105.96875 167.589844 105.96875 C 168.207031 105.96875 168.820312 105.910156 169.429688 105.792969 C 170.035156 105.675781 170.625 105.503906 171.199219 105.277344 C 171.777344 105.046875 172.324219 104.765625 172.847656 104.433594 C 173.367188 104.101562 173.851562 103.722656 174.304688 103.296875 C 174.753906 102.875 175.160156 102.410156 175.523438 101.910156 C 175.882812 101.410156 176.195312 100.878906 176.457031 100.316406 C 176.71875 99.757812 176.925781 99.175781 177.078125 98.578125 C 177.230469 97.976562 177.324219 97.367188 177.363281 96.75 L 201.398438 84.738281 C 203.035156 85.820312 204.835938 86.363281 206.796875 86.367188 C 207.441406 86.367188 208.078125 86.300781 208.710938 86.175781 C 209.339844 86.050781 209.953125 85.867188 210.550781 85.621094 C 211.144531 85.371094 211.707031 85.070312 212.242188 84.714844 C 212.777344 84.355469 213.273438 83.949219 213.730469 83.496094 C 214.183594 83.039062 214.589844 82.542969 214.949219 82.007812 C 215.304688 81.472656 215.609375 80.910156 215.855469 80.3125 C 216.101562 79.71875 216.285156 79.105469 216.410156 78.476562 C 216.539062 77.84375 216.601562 77.207031 216.601562 76.5625 C 216.601562 75.917969 216.539062 75.28125 216.410156 74.652344 C 216.285156 74.019531 216.101562 73.40625 215.855469 72.8125 C 215.609375 72.21875 215.304688 71.652344 214.949219 71.117188 C 214.589844 70.582031 214.183594 70.085938 213.730469 69.632812 C 213.273438 69.175781 212.777344 68.769531 212.242188 68.414062 C 211.707031 68.054688 211.144531 67.753906 210.550781 67.507812 C 209.953125 67.261719 209.339844 67.074219 208.710938 66.949219 C 208.078125 66.824219 207.441406 66.761719 206.796875 66.761719 C 206.179688 66.761719 205.566406 66.820312 204.960938 66.9375 C 204.351562 67.054688 203.761719 67.226562 203.1875 67.453125 C 202.613281 67.683594 202.066406 67.960938 201.542969 68.292969 C 201.023438 68.625 200.535156 69.003906 200.085938 69.429688 C 199.636719 69.851562 199.230469 70.316406 198.867188 70.816406 C 198.503906 71.316406 198.191406 71.847656 197.929688 72.40625 C 197.667969 72.964844 197.460938 73.546875 197.308594 74.144531 C 197.15625 74.746094 197.0625 75.351562 197.023438 75.96875 L 172.988281 87.992188 C 172.824219 87.890625 172.660156 87.789062 172.488281 87.695312 L 172.488281 65.429688 C 173.1875 65.023438 173.828125 64.542969 174.410156 63.976562 C 174.988281 63.414062 175.492188 62.789062 175.914062 62.101562 C 176.339844 61.414062 176.675781 60.6875 176.921875 59.917969 C 177.164062 59.148438 177.3125 58.359375 177.363281 57.550781 L 201.398438 45.527344 C 203.035156 46.613281 204.835938 47.152344 206.796875 47.15625 C 207.441406 47.15625 208.078125 47.09375 208.710938 46.96875 C 209.339844 46.84375 209.953125 46.65625 210.550781 46.410156 C 211.144531 46.164062 211.707031 45.863281 212.242188 45.503906 C 212.777344 45.148438 213.273438 44.742188 213.730469 44.285156 C 214.183594 43.832031 214.589844 43.335938 214.949219 42.800781 C 215.304688 42.265625 215.609375 41.699219 215.855469 41.105469 C 216.101562 40.511719 216.285156 39.898438 216.410156 39.265625 C 216.539062 38.636719 216.601562 37.996094 216.601562 37.355469 C 216.601562 36.710938 216.539062 36.074219 216.410156 35.441406 C 216.285156 34.808594 216.101562 34.199219 215.855469 33.601562 C 215.609375 33.007812 215.304688 32.441406 214.949219 31.90625 C 214.589844 31.371094 214.183594 30.878906 213.730469 30.421875 C 213.273438 29.96875 212.777344 29.5625 212.242188 29.203125 C 211.707031 28.847656 211.144531 28.542969 210.550781 28.296875 C 209.953125 28.050781 209.339844 27.867188 208.710938 27.738281 C 208.078125 27.613281 207.441406 27.550781 206.796875 27.550781 C 206.179688 27.550781 205.566406 27.609375 204.960938 27.726562 C 204.351562 27.84375 203.761719 28.015625 203.1875 28.246094 C 202.613281 28.472656 202.066406 28.753906 201.542969 29.085938 C 201.023438 29.417969 200.535156 29.796875 200.085938 30.21875 C 199.636719 30.644531 199.230469 31.105469 198.867188 31.605469 C 198.503906 32.109375 198.191406 32.636719 197.929688 33.199219 C 197.667969 33.757812 197.460938 34.335938 197.308594 34.9375 C 197.15625 35.535156 197.0625 36.144531 197.023438 36.761719 L 172.976562 48.785156 C 171.34375 47.703125 169.546875 47.160156 167.589844 47.15625 C 165.625 47.15625 163.828125 47.699219 162.191406 48.785156 L 139.339844 37.355469 L 162.191406 25.925781 C 163.828125 27.007812 165.625 27.550781 167.589844 27.550781 C 168.230469 27.550781 168.871094 27.488281 169.5 27.363281 C 170.132812 27.238281 170.746094 27.050781 171.339844 26.804688 C 171.933594 26.558594 172.5 26.257812 173.035156 25.898438 C 173.570312 25.542969 174.066406 25.136719 174.519531 24.679688 C 174.976562 24.226562 175.382812 23.730469 175.738281 23.195312 C 176.097656 22.660156 176.398438 22.09375 176.644531 21.5 C 176.890625 20.90625 177.078125 20.292969 177.203125 19.660156 C 177.328125 19.03125 177.390625 18.394531 177.390625 17.75 C 177.390625 17.105469 177.328125 16.46875 177.203125 15.835938 C 177.078125 15.207031 176.890625 14.59375 176.644531 14 C 176.398438 13.402344 176.097656 12.839844 175.738281 12.304688 C 175.382812 11.769531 174.976562 11.273438 174.519531 10.816406 C 174.066406 10.363281 173.570312 9.957031 173.035156 9.597656 C 172.5 9.242188 171.933594 8.941406 171.339844 8.691406 C 170.746094 8.445312 170.132812 8.261719 169.5 8.136719 C 168.871094 8.011719 168.230469 7.945312 167.589844 7.945312 Z M 167.589844 7.945312 " fill-opacity="1" fill-rule="nonzero"/></g><g fill="#000000" fill-opacity="1"><g transform="translate(219.477295, 53.509265)"><g><path d="M 23.03125 -7.84375 C 24.351562 -7.84375 25.632812 -8.039062 26.875 -8.4375 C 28.125 -8.84375 29.039062 -9.226562 29.625 -9.59375 L 30.5 -10.203125 L 34.1875 -2.8125 C 34.0625 -2.71875 33.890625 -2.59375 33.671875 -2.4375 C 33.460938 -2.289062 32.960938 -2.007812 32.171875 -1.59375 C 31.390625 -1.175781 30.550781 -0.8125 29.65625 -0.5 C 28.769531 -0.195312 27.601562 0.0703125 26.15625 0.3125 C 24.71875 0.5625 23.226562 0.6875 21.6875 0.6875 C 18.144531 0.6875 14.789062 -0.175781 11.625 -1.90625 C 8.457031 -3.644531 5.90625 -6.035156 3.96875 -9.078125 C 2.03125 -12.128906 1.0625 -15.425781 1.0625 -18.96875 C 1.0625 -21.644531 1.628906 -24.210938 2.765625 -26.671875 C 3.898438 -29.128906 5.414062 -31.234375 7.3125 -32.984375 C 9.207031 -34.742188 11.414062 -36.144531 13.9375 -37.1875 C 16.457031 -38.238281 19.039062 -38.765625 21.6875 -38.765625 C 24.144531 -38.765625 26.410156 -38.46875 28.484375 -37.875 C 30.566406 -37.289062 32.035156 -36.707031 32.890625 -36.125 L 34.1875 -35.25 L 30.5 -27.875 C 30.28125 -28.050781 29.957031 -28.269531 29.53125 -28.53125 C 29.101562 -28.800781 28.242188 -29.148438 26.953125 -29.578125 C 25.660156 -30.003906 24.351562 -30.21875 23.03125 -30.21875 C 20.9375 -30.21875 19.054688 -29.878906 17.390625 -29.203125 C 15.734375 -28.523438 14.421875 -27.632812 13.453125 -26.53125 C 12.484375 -25.425781 11.742188 -24.234375 11.234375 -22.953125 C 10.722656 -21.679688 10.46875 -20.382812 10.46875 -19.0625 C 10.46875 -16.164062 11.550781 -13.570312 13.71875 -11.28125 C 15.894531 -8.988281 19 -7.84375 23.03125 -7.84375 Z M 23.03125 -7.84375 "/></g></g></g><g fill="#000000" fill-opacity="1"><g transform="translate(254.220205, 53.509265)"><g><path d="M 2.765625 -38.0625 L 13.796875 -38.0625 C 19.085938 -38.0625 23.609375 -36.253906 27.359375 -32.640625 C 31.109375 -29.023438 32.984375 -24.5 32.984375 -19.0625 C 32.984375 -13.582031 31.113281 -9.035156 27.375 -5.421875 C 23.644531 -1.804688 19.117188 0 13.796875 0 L 2.765625 0 Z M 11.4375 -7.75 L 12.78125 -7.75 C 15.945312 -7.75 18.535156 -8.816406 20.546875 -10.953125 C 22.566406 -13.097656 23.59375 -15.785156 23.625 -19.015625 C 23.625 -22.242188 22.613281 -24.929688 20.59375 -27.078125 C 18.582031 -29.234375 15.976562 -30.3125 12.78125 -30.3125 L 11.4375 -30.3125 Z M 11.4375 -7.75 "/></g></g></g><g fill="#000000" fill-opacity="1"><g transform="translate(288.271028, 53.509265)"><g/></g></g><g fill="#000000" fill-opacity="1"><g transform="translate(300.867065, 53.509265)"><g><path d="M 11.4375 -38.0625 L 11.4375 -7.609375 L 24.546875 -7.609375 L 24.546875 0 L 2.765625 0 L 2.765625 -38.0625 Z M 11.4375 -38.0625 "/></g></g></g><g fill="#000000" fill-opacity="1"><g transform="translate(326.935779, 53.509265)"><g><path d="M 4.375 -2.921875 C 2.164062 -5.335938 1.0625 -8.300781 1.0625 -11.8125 C 1.0625 -15.320312 2.164062 -18.289062 4.375 -20.71875 C 6.59375 -23.144531 9.410156 -24.359375 12.828125 -24.359375 C 15.960938 -24.359375 18.546875 -23.375 20.578125 -21.40625 L 20.578125 -23.671875 L 28.75 -23.671875 L 28.75 0 L 20.671875 0 L 20.671875 -2.671875 L 20.578125 -2.671875 C 18.546875 -0.429688 15.960938 0.6875 12.828125 0.6875 C 9.410156 0.6875 6.59375 -0.515625 4.375 -2.921875 Z M 11.328125 -15.8125 C 10.265625 -14.769531 9.734375 -13.429688 9.734375 -11.796875 C 9.734375 -10.171875 10.238281 -8.84375 11.25 -7.8125 C 12.269531 -6.789062 13.609375 -6.28125 15.265625 -6.28125 C 16.867188 -6.28125 18.1875 -6.800781 19.21875 -7.84375 C 20.25 -8.882812 20.765625 -10.207031 20.765625 -11.8125 C 20.765625 -13.4375 20.234375 -14.769531 19.171875 -15.8125 C 18.109375 -16.863281 16.804688 -17.390625 15.265625 -17.390625 C 13.703125 -17.390625 12.390625 -16.863281 11.328125 -15.8125 Z M 11.328125 -15.8125 "/></g></g></g><g fill="#000000" fill-opacity="1"><g transform="translate(358.448935, 53.509265)"><g><path d="M 27.125 -20.71875 C 29.34375 -18.289062 30.453125 -15.320312 30.453125 -11.8125 C 30.453125 -8.300781 29.34375 -5.335938 27.125 -2.921875 C 24.914062 -0.515625 22.101562 0.6875 18.6875 0.6875 C 15.550781 0.6875 12.96875 -0.429688 10.9375 -2.671875 L 10.84375 -2.671875 L 10.84375 0 L 2.765625 0 L 2.765625 -39.6875 L 10.9375 -39.6875 L 10.9375 -21.40625 C 12.96875 -23.375 15.550781 -24.359375 18.6875 -24.359375 C 22.101562 -24.359375 24.914062 -23.144531 27.125 -20.71875 Z M 20.25 -7.8125 C 21.269531 -8.84375 21.78125 -10.171875 21.78125 -11.796875 C 21.78125 -13.429688 21.25 -14.769531 20.1875 -15.8125 C 19.125 -16.863281 17.804688 -17.390625 16.234375 -17.390625 C 14.703125 -17.390625 13.40625 -16.863281 12.34375 -15.8125 C 11.28125 -14.769531 10.75 -13.4375 10.75 -11.8125 C 10.75 -10.207031 11.265625 -8.882812 12.296875 -7.84375 C 13.328125 -6.800781 14.640625 -6.28125 16.234375 -6.28125 C 17.898438 -6.28125 19.238281 -6.789062 20.25 -7.8125 Z M 20.25 -7.8125 "/></g></g></g><g fill="#000000" fill-opacity="1"><g transform="translate(219.477295, 96.382426)"><g><path d="M 2.765625 -38.0625 L 16.375 -38.0625 C 20.039062 -38.0625 23.023438 -37.082031 25.328125 -35.125 C 27.640625 -33.175781 28.796875 -30.390625 28.796875 -26.765625 C 28.796875 -23.960938 28.09375 -21.613281 26.6875 -19.71875 C 25.289062 -17.832031 23.394531 -16.503906 21 -15.734375 L 34.09375 0 L 23.078125 0 L 11.4375 -15.046875 L 11.4375 0 L 2.765625 0 Z M 11.4375 -21.171875 L 12.453125 -21.171875 C 13.253906 -21.171875 13.929688 -21.1875 14.484375 -21.21875 C 15.035156 -21.25 15.664062 -21.359375 16.375 -21.546875 C 17.082031 -21.734375 17.648438 -21.992188 18.078125 -22.328125 C 18.515625 -22.671875 18.882812 -23.164062 19.1875 -23.8125 C 19.5 -24.457031 19.65625 -25.238281 19.65625 -26.15625 C 19.65625 -27.082031 19.5 -27.867188 19.1875 -28.515625 C 18.882812 -29.160156 18.515625 -29.648438 18.078125 -29.984375 C 17.648438 -30.328125 17.082031 -30.585938 16.375 -30.765625 C 15.664062 -30.953125 15.035156 -31.0625 14.484375 -31.09375 C 13.929688 -31.125 13.253906 -31.140625 12.453125 -31.140625 L 11.4375 -31.140625 Z M 11.4375 -21.171875 "/></g></g></g><g fill="#000000" fill-opacity="1"><g transform="translate(252.516947, 96.382426)"><g><path d="M 26.71875 -10.703125 L 9.546875 -10.703125 C 9.546875 -9.046875 10.082031 -7.816406 11.15625 -7.015625 C 12.238281 -6.210938 13.410156 -5.8125 14.671875 -5.8125 C 15.992188 -5.8125 17.039062 -5.988281 17.8125 -6.34375 C 18.582031 -6.695312 19.457031 -7.394531 20.4375 -8.4375 L 26.34375 -5.484375 C 23.882812 -1.367188 19.796875 0.6875 14.078125 0.6875 C 10.503906 0.6875 7.441406 -0.53125 4.890625 -2.96875 C 2.335938 -5.414062 1.0625 -8.363281 1.0625 -11.8125 C 1.0625 -15.257812 2.335938 -18.210938 4.890625 -20.671875 C 7.441406 -23.128906 10.503906 -24.359375 14.078125 -24.359375 C 17.828125 -24.359375 20.878906 -23.273438 23.234375 -21.109375 C 25.585938 -18.941406 26.765625 -15.84375 26.765625 -11.8125 C 26.765625 -11.257812 26.75 -10.890625 26.71875 -10.703125 Z M 9.78125 -15.21875 L 18.78125 -15.21875 C 18.59375 -16.457031 18.109375 -17.40625 17.328125 -18.0625 C 16.546875 -18.726562 15.535156 -19.0625 14.296875 -19.0625 C 12.941406 -19.0625 11.863281 -18.707031 11.0625 -18 C 10.269531 -17.289062 9.84375 -16.363281 9.78125 -15.21875 Z M 9.78125 -15.21875 "/></g></g></g><g fill="#000000" fill-opacity="1"><g transform="translate(280.342241, 96.382426)"><g><path d="M 15.359375 -17.671875 C 13.828125 -17.671875 12.503906 -17.097656 11.390625 -15.953125 C 10.285156 -14.816406 9.734375 -13.453125 9.734375 -11.859375 C 9.734375 -10.222656 10.285156 -8.835938 11.390625 -7.703125 C 12.503906 -6.566406 13.828125 -6 15.359375 -6 C 16.097656 -6 16.796875 -6.085938 17.453125 -6.265625 C 18.117188 -6.453125 18.609375 -6.640625 18.921875 -6.828125 L 19.328125 -7.109375 L 22.09375 -1.4375 C 21.882812 -1.28125 21.585938 -1.082031 21.203125 -0.84375 C 20.816406 -0.613281 19.9375 -0.300781 18.5625 0.09375 C 17.195312 0.488281 15.734375 0.6875 14.171875 0.6875 C 10.691406 0.6875 7.632812 -0.53125 5 -2.96875 C 2.375 -5.414062 1.0625 -8.347656 1.0625 -11.765625 C 1.0625 -15.210938 2.375 -18.171875 5 -20.640625 C 7.632812 -23.117188 10.691406 -24.359375 14.171875 -24.359375 C 15.734375 -24.359375 17.175781 -24.171875 18.5 -23.796875 C 19.820312 -23.429688 20.757812 -23.066406 21.3125 -22.703125 L 22.09375 -22.140625 L 19.328125 -16.5625 C 18.316406 -17.300781 16.992188 -17.671875 15.359375 -17.671875 Z M 15.359375 -17.671875 "/></g></g></g><g fill="#000000" fill-opacity="1"><g transform="translate(302.999319, 96.382426)"><g><path d="M 16.796875 -38.765625 C 18.859375 -38.765625 20.875 -38.460938 22.84375 -37.859375 C 24.8125 -37.253906 26.269531 -36.660156 27.21875 -36.078125 L 28.609375 -35.15625 L 25.09375 -28.234375 C 24.820312 -28.421875 24.4375 -28.660156 23.9375 -28.953125 C 23.445312 -29.242188 22.523438 -29.632812 21.171875 -30.125 C 19.816406 -30.625 18.554688 -30.875 17.390625 -30.875 C 15.941406 -30.875 14.828125 -30.5625 14.046875 -29.9375 C 13.265625 -29.320312 12.875 -28.492188 12.875 -27.453125 C 12.875 -26.929688 13.054688 -26.445312 13.421875 -26 C 13.796875 -25.550781 14.425781 -25.070312 15.3125 -24.5625 C 16.207031 -24.0625 16.992188 -23.65625 17.671875 -23.34375 C 18.347656 -23.039062 19.394531 -22.582031 20.8125 -21.96875 C 23.269531 -20.914062 25.367188 -19.488281 27.109375 -17.6875 C 28.847656 -15.894531 29.71875 -13.859375 29.71875 -11.578125 C 29.71875 -9.398438 29.320312 -7.492188 28.53125 -5.859375 C 27.75 -4.234375 26.671875 -2.957031 25.296875 -2.03125 C 23.929688 -1.101562 22.414062 -0.421875 20.75 0.015625 C 19.09375 0.460938 17.296875 0.6875 15.359375 0.6875 C 13.703125 0.6875 12.070312 0.515625 10.46875 0.171875 C 8.875 -0.160156 7.535156 -0.578125 6.453125 -1.078125 C 5.378906 -1.585938 4.410156 -2.085938 3.546875 -2.578125 C 2.691406 -3.078125 2.0625 -3.492188 1.65625 -3.828125 L 1.0625 -4.34375 L 5.40625 -11.625 C 5.769531 -11.320312 6.273438 -10.929688 6.921875 -10.453125 C 7.566406 -9.972656 8.710938 -9.332031 10.359375 -8.53125 C 12.003906 -7.738281 13.457031 -7.34375 14.71875 -7.34375 C 18.375 -7.34375 20.203125 -8.585938 20.203125 -11.078125 C 20.203125 -11.597656 20.070312 -12.082031 19.8125 -12.53125 C 19.550781 -12.976562 19.085938 -13.421875 18.421875 -13.859375 C 17.765625 -14.304688 17.179688 -14.660156 16.671875 -14.921875 C 16.171875 -15.179688 15.34375 -15.582031 14.1875 -16.125 C 13.03125 -16.664062 12.175781 -17.070312 11.625 -17.34375 C 9.320312 -18.488281 7.539062 -19.910156 6.28125 -21.609375 C 5.019531 -23.316406 4.390625 -25.15625 4.390625 -27.125 C 4.390625 -30.539062 5.648438 -33.332031 8.171875 -35.5 C 10.691406 -37.675781 13.566406 -38.765625 16.796875 -38.765625 Z M 16.796875 -38.765625 "/></g></g></g><g fill="#000000" fill-opacity="1"><g transform="translate(334.008606, 96.382426)"><g><path d="M 20.71875 -23.671875 L 30.125 -23.671875 L 11.53125 12 L 2.125 12 L 10.296875 -3.6875 L -0.921875 -23.671875 L 8.484375 -23.671875 L 15.09375 -11.53125 Z M 20.71875 -23.671875 "/></g></g></g><g fill="#000000" fill-opacity="1"><g transform="translate(363.218244, 96.382426)"><g><path d="M 13.0625 -24.359375 C 14.414062 -24.359375 15.753906 -24.203125 17.078125 -23.890625 C 18.398438 -23.585938 19.382812 -23.285156 20.03125 -22.984375 L 21 -22.515625 L 18.3125 -17.171875 C 16.46875 -18.148438 14.71875 -18.640625 13.0625 -18.640625 C 12.132812 -18.640625 11.476562 -18.539062 11.09375 -18.34375 C 10.707031 -18.144531 10.515625 -17.765625 10.515625 -17.203125 C 10.515625 -17.085938 10.53125 -16.96875 10.5625 -16.84375 C 10.59375 -16.71875 10.65625 -16.597656 10.75 -16.484375 C 10.84375 -16.378906 10.925781 -16.289062 11 -16.21875 C 11.082031 -16.144531 11.210938 -16.0625 11.390625 -15.96875 C 11.578125 -15.875 11.722656 -15.800781 11.828125 -15.75 C 11.941406 -15.707031 12.117188 -15.640625 12.359375 -15.546875 C 12.609375 -15.453125 12.796875 -15.378906 12.921875 -15.328125 C 13.046875 -15.285156 13.253906 -15.21875 13.546875 -15.125 C 13.835938 -15.039062 14.0625 -14.984375 14.21875 -14.953125 C 15.164062 -14.671875 15.992188 -14.359375 16.703125 -14.015625 C 17.410156 -13.679688 18.15625 -13.222656 18.9375 -12.640625 C 19.726562 -12.054688 20.335938 -11.316406 20.765625 -10.421875 C 21.191406 -9.535156 21.40625 -8.519531 21.40625 -7.375 C 21.40625 -2 17.671875 0.6875 10.203125 0.6875 C 8.503906 0.6875 6.894531 0.425781 5.375 -0.09375 C 3.851562 -0.613281 2.753906 -1.132812 2.078125 -1.65625 L 1.0625 -2.484375 L 4.390625 -8.078125 C 4.628906 -7.859375 4.945312 -7.601562 5.34375 -7.3125 C 5.75 -7.019531 6.472656 -6.617188 7.515625 -6.109375 C 8.566406 -5.609375 9.476562 -5.359375 10.25 -5.359375 C 11.9375 -5.359375 12.78125 -5.925781 12.78125 -7.0625 C 12.78125 -7.582031 12.5625 -7.988281 12.125 -8.28125 C 11.695312 -8.570312 10.96875 -8.898438 9.9375 -9.265625 C 8.90625 -9.640625 8.097656 -9.984375 7.515625 -10.296875 C 6.046875 -11.054688 4.878906 -11.921875 4.015625 -12.890625 C 3.148438 -13.859375 2.71875 -15.144531 2.71875 -16.75 C 2.71875 -19.144531 3.648438 -21.007812 5.515625 -22.34375 C 7.378906 -23.6875 9.894531 -24.359375 13.0625 -24.359375 Z M 13.0625 -24.359375 "/></g></g></g></svg>